<?xml version="1.0" encoding="UTF-8" standalone="no"?>
<!DOCTYPE svg PUBLIC "-//W3C//DTD SVG 1.1//EN"
 "http://www.w3.org/Graphics/SVG/1.1/DTD/svg11.dtd">
<!-- Generated by graphviz version 5.0.0 (20220707.1540)
 -->
<!-- Title: dependencies Pages: 1 -->
<svg width="503pt" height="247pt"
 viewBox="0.00 0.00 503.00 246.80" xmlns="http://www.w3.org/2000/svg" xmlns:xlink="http://www.w3.org/1999/xlink">
<g id="graph0" class="graph" transform="scale(1 1) rotate(0) translate(4 242.8)">
<title>dependencies</title>
<polygon fill="white" stroke="transparent" points="-4,4 -4,-242.8 499,-242.8 499,4 -4,4"/>
<text text-anchor="middle" x="247.5" y="-8.2" font-family="sans-serif" font-size="14.00">dependencies</text>
<g id="clust1" class="cluster">
<title>cluster_LoggerModule</title>
<polygon fill="none" stroke="black" stroke-dasharray="1,5" points="8,-32.8 8,-230.8 487,-230.8 487,-32.8 8,-32.8"/>
</g>
<g id="clust3" class="cluster">
<title>cluster_LoggerModule_imports</title>
<polygon fill="none" stroke="black" points="365,-40.8 365,-92.8 479,-92.8 479,-40.8 365,-40.8"/>
</g>
<g id="clust4" class="cluster">
<title>cluster_LoggerModule_exports</title>
<polygon fill="none" stroke="black" points="138,-170.8 138,-222.8 402,-222.8 402,-170.8 138,-170.8"/>
</g>
<g id="clust6" class="cluster">
<title>cluster_LoggerModule_providers</title>
<polygon fill="none" stroke="black" points="16,-40.8 16,-92.8 357,-92.8 357,-40.8 16,-40.8"/>
</g>
<!-- PrismaModule -->
<g id="node1" class="node">
<title>PrismaModule</title>
<polygon fill="#8dd3c7" stroke="black" points="471.44,-84.8 468.44,-88.8 447.44,-88.8 444.44,-84.8 372.56,-84.8 372.56,-48.8 471.44,-48.8 471.44,-84.8"/>
<text text-anchor="middle" x="422" y="-62.6" font-family="Times,serif" font-size="14.00">PrismaModule</text>
</g>
<!-- LoggerModule -->
<g id="node2" class="node">
<title>LoggerModule</title>
<polygon fill="#8dd3c7" stroke="black" points="312.98,-149.8 309.98,-153.8 288.98,-153.8 285.98,-149.8 213.02,-149.8 213.02,-113.8 312.98,-113.8 312.98,-149.8"/>
<text text-anchor="middle" x="263" y="-127.6" font-family="Times,serif" font-size="14.00">LoggerModule</text>
</g>
<!-- PrismaModule&#45;&gt;LoggerModule -->
<g id="edge1" class="edge">
<title>PrismaModule&#45;&gt;LoggerModule</title>
<path fill="none" stroke="black" d="M383.28,-84.91C383.28,-104.14 383.28,-131.8 383.28,-131.8 383.28,-131.8 323.31,-131.8 323.31,-131.8"/>
<polygon fill="black" stroke="black" points="323.31,-128.3 313.31,-131.8 323.31,-135.3 323.31,-128.3"/>
</g>
<!-- LoggerMiddleware  -->
<g id="node3" class="node">
<title>LoggerMiddleware </title>
<polygon fill="#fb8072" stroke="black" points="393.57,-214.8 266.43,-214.8 266.43,-178.8 393.57,-178.8 393.57,-214.8"/>
<text text-anchor="middle" x="330" y="-192.6" font-family="Times,serif" font-size="14.00">LoggerMiddleware </text>
</g>
<!-- LoggerModule&#45;&gt;LoggerMiddleware  -->
<g id="edge2" class="edge">
<title>LoggerModule&#45;&gt;LoggerMiddleware </title>
<path fill="none" stroke="black" stroke-dasharray="5,2" d="M289.6,-149.91C289.6,-149.91 289.6,-168.79 289.6,-168.79"/>
<polygon fill="black" stroke="black" points="286.1,-168.79 289.6,-178.79 293.1,-168.79 286.1,-168.79"/>
</g>
<!-- LoggerService  -->
<g id="node4" class="node">
<title>LoggerService </title>
<polygon fill="#fb8072" stroke="black" points="247.91,-214.8 146.09,-214.8 146.09,-178.8 247.91,-178.8 247.91,-214.8"/>
<text text-anchor="middle" x="197" y="-192.6" font-family="Times,serif" font-size="14.00">LoggerService </text>
</g>
<!-- LoggerModule&#45;&gt;LoggerService  -->
<g id="edge3" class="edge">
<title>LoggerModule&#45;&gt;LoggerService </title>
<path fill="none" stroke="black" stroke-dasharray="5,2" d="M230.48,-149.91C230.48,-149.91 230.48,-168.79 230.48,-168.79"/>
<polygon fill="black" stroke="black" points="226.98,-168.79 230.48,-178.79 233.98,-168.79 226.98,-168.79"/>
</g>
<!-- LoggerMiddleware -->
<g id="node5" class="node">
<title>LoggerMiddleware</title>
<ellipse fill="#fdb462" stroke="black" cx="263" cy="-66.8" rx="85.66" ry="18"/>
<text text-anchor="middle" x="263" y="-62.6" font-family="Times,serif" font-size="14.00">LoggerMiddleware</text>
</g>
<!-- LoggerMiddleware&#45;&gt;LoggerModule -->
<g id="edge4" class="edge">
<title>LoggerMiddleware&#45;&gt;LoggerModule</title>
<path fill="none" stroke="black" d="M263,-84.91C263,-84.91 263,-103.79 263,-103.79"/>
<polygon fill="black" stroke="black" points="259.5,-103.79 263,-113.79 266.5,-103.79 259.5,-103.79"/>
</g>
<!-- LoggerService -->
<g id="node6" class="node">
<title>LoggerService</title>
<ellipse fill="#fdb462" stroke="black" cx="92" cy="-66.8" rx="67.76" ry="18"/>
<text text-anchor="middle" x="92" y="-62.6" font-family="Times,serif" font-size="14.00">LoggerService</text>
</g>
<!-- LoggerService&#45;&gt;LoggerModule -->
<g id="edge5" class="edge">
<title>LoggerService&#45;&gt;LoggerModule</title>
<path fill="none" stroke="black" d="M152.96,-74.77C152.96,-92.13 152.96,-131.8 152.96,-131.8 152.96,-131.8 202.81,-131.8 202.81,-131.8"/>
<polygon fill="black" stroke="black" points="202.81,-135.3 212.81,-131.8 202.81,-128.3 202.81,-135.3"/>
</g>
</g>
</svg>
