<?xml version="1.0" encoding="UTF-8" standalone="no"?>
<!DOCTYPE svg PUBLIC "-//W3C//DTD SVG 1.1//EN"
 "http://www.w3.org/Graphics/SVG/1.1/DTD/svg11.dtd">
<!-- Generated by graphviz version 5.0.0 (20220707.1540)
 -->
<!-- Title: dependencies Pages: 1 -->
<svg width="1891pt" height="345pt"
 viewBox="0.00 0.00 1891.00 344.80" xmlns="http://www.w3.org/2000/svg" xmlns:xlink="http://www.w3.org/1999/xlink">
<g id="graph0" class="graph" transform="scale(1 1) rotate(0) translate(4 340.8)">
<title>dependencies</title>
<polygon fill="white" stroke="transparent" points="-4,4 -4,-340.8 1887,-340.8 1887,4 -4,4"/>
<text text-anchor="middle" x="941.5" y="-8.2" font-family="sans-serif" font-size="14.00">dependencies</text>
<g id="clust1" class="cluster">
<title>cluster_AppModule</title>
<polygon fill="none" stroke="black" stroke-dasharray="1,5" points="700,-108.8 700,-320.8 1238,-320.8 1238,-108.8 700,-108.8"/>
</g>
<g id="clust3" class="cluster">
<title>cluster_AppModule_imports</title>
<polygon fill="none" stroke="black" points="846,-116.8 846,-244.8 1190,-244.8 1190,-116.8 846,-116.8"/>
</g>
<g id="clust6" class="cluster">
<title>cluster_AppModule_providers</title>
<polygon fill="none" stroke="black" points="708,-192.8 708,-244.8 838,-244.8 838,-192.8 708,-192.8"/>
</g>
<g id="clust7" class="cluster">
<title>cluster_AuthModule</title>
<polygon fill="none" stroke="black" stroke-dasharray="1,5" points="8,-108.8 8,-176.8 526,-176.8 526,-108.8 8,-108.8"/>
</g>
<g id="clust10" class="cluster">
<title>cluster_AuthModule_exports</title>
<polygon fill="none" stroke="black" points="412,-116.8 412,-168.8 518,-168.8 518,-116.8 412,-116.8"/>
</g>
<g id="clust12" class="cluster">
<title>cluster_AuthModule_providers</title>
<polygon fill="none" stroke="black" points="16,-116.8 16,-168.8 404,-168.8 404,-116.8 16,-116.8"/>
</g>
<g id="clust13" class="cluster">
<title>cluster_EventModule</title>
<polygon fill="none" stroke="black" stroke-dasharray="1,5" points="534,-108.8 534,-176.8 692,-176.8 692,-108.8 534,-108.8"/>
</g>
<g id="clust18" class="cluster">
<title>cluster_EventModule_providers</title>
<polygon fill="none" stroke="black" points="542,-116.8 542,-168.8 684,-168.8 684,-116.8 542,-116.8"/>
</g>
<g id="clust19" class="cluster">
<title>cluster_LoggerModule</title>
<polygon fill="none" stroke="black" stroke-dasharray="1,5" points="1246,-260.8 1246,-328.8 1875,-328.8 1875,-260.8 1246,-260.8"/>
</g>
<g id="clust22" class="cluster">
<title>cluster_LoggerModule_exports</title>
<polygon fill="none" stroke="black" points="1603,-268.8 1603,-320.8 1867,-320.8 1867,-268.8 1603,-268.8"/>
</g>
<g id="clust24" class="cluster">
<title>cluster_LoggerModule_providers</title>
<polygon fill="none" stroke="black" points="1254,-268.8 1254,-320.8 1595,-320.8 1595,-268.8 1254,-268.8"/>
</g>
<g id="clust25" class="cluster">
<title>cluster_MessageModule</title>
<polygon fill="none" stroke="black" stroke-dasharray="1,5" points="818,-32.8 818,-100.8 998,-100.8 998,-32.8 818,-32.8"/>
</g>
<g id="clust30" class="cluster">
<title>cluster_MessageModule_providers</title>
<polygon fill="none" stroke="black" points="826,-40.8 826,-92.8 990,-92.8 990,-40.8 826,-40.8"/>
</g>
<g id="clust31" class="cluster">
<title>cluster_PrismaModule</title>
<polygon fill="none" stroke="black" stroke-dasharray="1,5" points="1246,-184.8 1246,-252.8 1536,-252.8 1536,-184.8 1246,-184.8"/>
</g>
<g id="clust34" class="cluster">
<title>cluster_PrismaModule_exports</title>
<polygon fill="none" stroke="black" points="1412,-192.8 1412,-244.8 1528,-244.8 1528,-192.8 1412,-192.8"/>
</g>
<g id="clust36" class="cluster">
<title>cluster_PrismaModule_providers</title>
<polygon fill="none" stroke="black" points="1254,-192.8 1254,-244.8 1404,-244.8 1404,-192.8 1254,-192.8"/>
</g>
<g id="clust37" class="cluster">
<title>cluster_UserModule</title>
<polygon fill="none" stroke="black" stroke-dasharray="1,5" points="1544,-184.8 1544,-252.8 1804,-252.8 1804,-184.8 1544,-184.8"/>
</g>
<g id="clust40" class="cluster">
<title>cluster_UserModule_exports</title>
<polygon fill="none" stroke="black" points="1692,-192.8 1692,-244.8 1796,-244.8 1796,-192.8 1692,-192.8"/>
</g>
<g id="clust42" class="cluster">
<title>cluster_UserModule_providers</title>
<polygon fill="none" stroke="black" points="1552,-192.8 1552,-244.8 1684,-244.8 1684,-192.8 1552,-192.8"/>
</g>
<!-- AuthModule -->
<g id="node1" class="node">
<title>AuthModule</title>
<polygon fill="#8dd3c7" stroke="black" points="941.55,-236.8 938.55,-240.8 917.55,-240.8 914.55,-236.8 854.45,-236.8 854.45,-200.8 941.55,-200.8 941.55,-236.8"/>
<text text-anchor="middle" x="898" y="-214.6" font-family="Times,serif" font-size="14.00">AuthModule</text>
</g>
<!-- AppModule -->
<g id="node7" class="node">
<title>AppModule</title>
<polygon fill="#8dd3c7" stroke="black" points="1161.66,-312.8 1158.66,-316.8 1137.66,-316.8 1134.66,-312.8 1078.34,-312.8 1078.34,-276.8 1161.66,-276.8 1161.66,-312.8"/>
<text text-anchor="middle" x="1120" y="-290.6" font-family="Times,serif" font-size="14.00">AppModule</text>
</g>
<!-- AuthModule&#45;&gt;AppModule -->
<g id="edge1" class="edge">
<title>AuthModule&#45;&gt;AppModule</title>
<path fill="none" stroke="black" d="M898,-237C898,-261.16 898,-300.8 898,-300.8 898,-300.8 1068.24,-300.8 1068.24,-300.8"/>
<polygon fill="black" stroke="black" points="1068.24,-304.3 1078.24,-300.8 1068.24,-297.3 1068.24,-304.3"/>
</g>
<!-- AuthService  -->
<g id="node9" class="node">
<title>AuthService </title>
<polygon fill="#fb8072" stroke="black" points="509.98,-160.8 420.02,-160.8 420.02,-124.8 509.98,-124.8 509.98,-160.8"/>
<text text-anchor="middle" x="465" y="-138.6" font-family="Times,serif" font-size="14.00">AuthService </text>
</g>
<!-- AuthModule&#45;&gt;AuthService  -->
<g id="edge9" class="edge">
<title>AuthModule&#45;&gt;AuthService </title>
<path fill="none" stroke="black" stroke-dasharray="5,2" d="M912.59,-200.65C912.59,-188.53 912.59,-174.8 912.59,-174.8 912.59,-174.8 465,-174.8 465,-174.8 465,-174.8 465,-171.04 465,-171.04"/>
<polygon fill="black" stroke="black" points="468.5,-171.04 465,-161.04 461.5,-171.04 468.5,-171.04"/>
</g>
<!-- EventModule -->
<g id="node2" class="node">
<title>EventModule</title>
<polygon fill="#8dd3c7" stroke="black" points="1052.21,-236.8 1049.21,-240.8 1028.21,-240.8 1025.21,-236.8 959.79,-236.8 959.79,-200.8 1052.21,-200.8 1052.21,-236.8"/>
<text text-anchor="middle" x="1006" y="-214.6" font-family="Times,serif" font-size="14.00">EventModule</text>
</g>
<!-- EventModule&#45;&gt;AppModule -->
<g id="edge2" class="edge">
<title>EventModule&#45;&gt;AppModule</title>
<path fill="none" stroke="black" d="M1006,-236.83C1006,-257.57 1006,-288.8 1006,-288.8 1006,-288.8 1068.2,-288.8 1068.2,-288.8"/>
<polygon fill="black" stroke="black" points="1068.2,-292.3 1078.2,-288.8 1068.2,-285.3 1068.2,-292.3"/>
</g>
<!-- LoggerModule -->
<g id="node3" class="node">
<title>LoggerModule</title>
<polygon fill="#8dd3c7" stroke="black" points="1169.98,-236.8 1166.98,-240.8 1145.98,-240.8 1142.98,-236.8 1070.02,-236.8 1070.02,-200.8 1169.98,-200.8 1169.98,-236.8"/>
<text text-anchor="middle" x="1120" y="-214.6" font-family="Times,serif" font-size="14.00">LoggerModule</text>
</g>
<!-- LoggerModule&#45;&gt;AppModule -->
<g id="edge3" class="edge">
<title>LoggerModule&#45;&gt;AppModule</title>
<path fill="none" stroke="black" d="M1106.06,-236.81C1106.06,-236.81 1106.06,-266.65 1106.06,-266.65"/>
<polygon fill="black" stroke="black" points="1102.56,-266.65 1106.06,-276.65 1109.56,-266.65 1102.56,-266.65"/>
</g>
<!-- LoggerMiddleware  -->
<g id="node14" class="node">
<title>LoggerMiddleware </title>
<polygon fill="#fb8072" stroke="black" points="1738.57,-312.8 1611.43,-312.8 1611.43,-276.8 1738.57,-276.8 1738.57,-312.8"/>
<text text-anchor="middle" x="1675" y="-290.6" font-family="Times,serif" font-size="14.00">LoggerMiddleware </text>
</g>
<!-- LoggerModule&#45;&gt;LoggerMiddleware  -->
<g id="edge16" class="edge">
<title>LoggerModule&#45;&gt;LoggerMiddleware </title>
<path fill="none" stroke="black" stroke-dasharray="5,2" d="M1163.87,-236.91C1163.87,-246.7 1163.87,-256.8 1163.87,-256.8 1163.87,-256.8 1643.72,-256.8 1643.72,-256.8 1643.72,-256.8 1643.72,-266.69 1643.72,-266.69"/>
<polygon fill="black" stroke="black" points="1640.22,-266.69 1643.72,-276.69 1647.22,-266.69 1640.22,-266.69"/>
</g>
<!-- LoggerService  -->
<g id="node15" class="node">
<title>LoggerService </title>
<polygon fill="#fb8072" stroke="black" points="1858.91,-312.8 1757.09,-312.8 1757.09,-276.8 1858.91,-276.8 1858.91,-312.8"/>
<text text-anchor="middle" x="1808" y="-290.6" font-family="Times,serif" font-size="14.00">LoggerService </text>
</g>
<!-- LoggerModule&#45;&gt;LoggerService  -->
<g id="edge17" class="edge">
<title>LoggerModule&#45;&gt;LoggerService </title>
<path fill="none" stroke="black" stroke-dasharray="5,2" d="M1133.94,-237.01C1133.94,-242.35 1133.94,-246.8 1133.94,-246.8 1133.94,-246.8 1772.5,-246.8 1772.5,-246.8 1772.5,-246.8 1772.5,-266.65 1772.5,-266.65"/>
<polygon fill="black" stroke="black" points="1769,-266.65 1772.5,-276.65 1776,-266.65 1769,-266.65"/>
</g>
<!-- MessageModule -->
<g id="node4" class="node">
<title>MessageModule</title>
<polygon fill="#8dd3c7" stroke="black" points="962.04,-160.8 959.04,-164.8 938.04,-164.8 935.04,-160.8 853.96,-160.8 853.96,-124.8 962.04,-124.8 962.04,-160.8"/>
<text text-anchor="middle" x="908" y="-138.6" font-family="Times,serif" font-size="14.00">MessageModule</text>
</g>
<!-- MessageModule&#45;&gt;AppModule -->
<g id="edge4" class="edge">
<title>MessageModule&#45;&gt;AppModule</title>
<path fill="none" stroke="black" d="M950.84,-160.83C950.84,-201.1 950.84,-294.8 950.84,-294.8 950.84,-294.8 1068.18,-294.8 1068.18,-294.8"/>
<polygon fill="black" stroke="black" points="1068.18,-298.3 1078.18,-294.8 1068.18,-291.3 1068.18,-298.3"/>
</g>
<!-- PrismaModule -->
<g id="node5" class="node">
<title>PrismaModule</title>
<polygon fill="#8dd3c7" stroke="black" points="1078.44,-160.8 1075.44,-164.8 1054.44,-164.8 1051.44,-160.8 979.56,-160.8 979.56,-124.8 1078.44,-124.8 1078.44,-160.8"/>
<text text-anchor="middle" x="1029" y="-138.6" font-family="Times,serif" font-size="14.00">PrismaModule</text>
</g>
<!-- PrismaModule&#45;&gt;EventModule -->
<g id="edge13" class="edge">
<title>PrismaModule&#45;&gt;EventModule</title>
<path fill="none" stroke="black" d="M1015.94,-160.81C1015.94,-160.81 1015.94,-190.65 1015.94,-190.65"/>
<polygon fill="black" stroke="black" points="1012.44,-190.65 1015.94,-200.65 1019.44,-190.65 1012.44,-190.65"/>
</g>
<!-- PrismaModule&#45;&gt;LoggerModule -->
<g id="edge15" class="edge">
<title>PrismaModule&#45;&gt;LoggerModule</title>
<path fill="none" stroke="black" d="M1072.75,-160.81C1072.75,-160.81 1072.75,-190.65 1072.75,-190.65"/>
<polygon fill="black" stroke="black" points="1069.25,-190.65 1072.75,-200.65 1076.25,-190.65 1069.25,-190.65"/>
</g>
<!-- PrismaModule&#45;&gt;AppModule -->
<g id="edge5" class="edge">
<title>PrismaModule&#45;&gt;AppModule</title>
<path fill="none" stroke="black" d="M1064.04,-160.82C1064.04,-198.63 1064.04,-282.8 1064.04,-282.8 1064.04,-282.8 1068.16,-282.8 1068.16,-282.8"/>
<polygon fill="black" stroke="black" points="1068.16,-286.3 1078.16,-282.8 1068.16,-279.3 1068.16,-286.3"/>
</g>
<!-- PrismaService  -->
<g id="node19" class="node">
<title>PrismaService </title>
<polygon fill="#fb8072" stroke="black" points="1520.37,-236.8 1419.63,-236.8 1419.63,-200.8 1520.37,-200.8 1520.37,-236.8"/>
<text text-anchor="middle" x="1470" y="-214.6" font-family="Times,serif" font-size="14.00">PrismaService </text>
</g>
<!-- PrismaModule&#45;&gt;PrismaService  -->
<g id="edge21" class="edge">
<title>PrismaModule&#45;&gt;PrismaService </title>
<path fill="none" stroke="black" stroke-dasharray="5,2" d="M1058.07,-160.92C1058.07,-163.77 1058.07,-165.8 1058.07,-165.8 1058.07,-165.8 1470,-165.8 1470,-165.8 1470,-165.8 1470,-190.56 1470,-190.56"/>
<polygon fill="black" stroke="black" points="1466.5,-190.56 1470,-200.56 1473.5,-190.56 1466.5,-190.56"/>
</g>
<!-- UserModule -->
<g id="node6" class="node">
<title>UserModule</title>
<polygon fill="#8dd3c7" stroke="black" points="1181.99,-160.8 1178.99,-164.8 1157.99,-164.8 1154.99,-160.8 1096.01,-160.8 1096.01,-124.8 1181.99,-124.8 1181.99,-160.8"/>
<text text-anchor="middle" x="1139" y="-138.6" font-family="Times,serif" font-size="14.00">UserModule</text>
</g>
<!-- UserModule&#45;&gt;AuthModule -->
<g id="edge8" class="edge">
<title>UserModule&#45;&gt;AuthModule</title>
<path fill="none" stroke="black" d="M1133,-161.08C1133,-176.75 1133,-196.8 1133,-196.8 1133,-196.8 927.18,-196.8 927.18,-196.8 927.18,-196.8 927.18,-197.18 927.18,-197.18"/>
<polygon fill="black" stroke="black" points="923.68,-190.63 927.18,-200.63 930.68,-190.63 923.68,-190.63"/>
</g>
<!-- UserModule&#45;&gt;AppModule -->
<g id="edge6" class="edge">
<title>UserModule&#45;&gt;AppModule</title>
<path fill="none" stroke="black" d="M1175.99,-160.92C1175.99,-202.43 1175.99,-300.8 1175.99,-300.8 1175.99,-300.8 1171.86,-300.8 1171.86,-300.8"/>
<polygon fill="black" stroke="black" points="1171.86,-297.3 1161.86,-300.8 1171.86,-304.3 1171.86,-297.3"/>
</g>
<!-- UserService  -->
<g id="node21" class="node">
<title>UserService </title>
<polygon fill="#fb8072" stroke="black" points="1787.91,-236.8 1700.09,-236.8 1700.09,-200.8 1787.91,-200.8 1787.91,-236.8"/>
<text text-anchor="middle" x="1744" y="-214.6" font-family="Times,serif" font-size="14.00">UserService </text>
</g>
<!-- UserModule&#45;&gt;UserService  -->
<g id="edge23" class="edge">
<title>UserModule&#45;&gt;UserService </title>
<path fill="none" stroke="black" stroke-dasharray="5,2" d="M1182.03,-136.8C1320.24,-136.8 1744,-136.8 1744,-136.8 1744,-136.8 1744,-190.6 1744,-190.6"/>
<polygon fill="black" stroke="black" points="1740.5,-190.6 1744,-200.6 1747.5,-190.6 1740.5,-190.6"/>
</g>
<!-- AppService -->
<g id="node8" class="node">
<title>AppService</title>
<ellipse fill="#fdb462" stroke="black" cx="773" cy="-218.8" rx="56.75" ry="18"/>
<text text-anchor="middle" x="773" y="-214.6" font-family="Times,serif" font-size="14.00">AppService</text>
</g>
<!-- AppService&#45;&gt;AppModule -->
<g id="edge7" class="edge">
<title>AppService&#45;&gt;AppModule</title>
<path fill="none" stroke="black" d="M773,-237.03C773,-262.81 773,-306.8 773,-306.8 773,-306.8 1068.14,-306.8 1068.14,-306.8"/>
<polygon fill="black" stroke="black" points="1068.14,-310.3 1078.14,-306.8 1068.14,-303.3 1068.14,-310.3"/>
</g>
<!-- AuthService -->
<g id="node10" class="node">
<title>AuthService</title>
<ellipse fill="#fdb462" stroke="black" cx="337" cy="-142.8" rx="59.11" ry="18"/>
<text text-anchor="middle" x="337" y="-138.6" font-family="Times,serif" font-size="14.00">AuthService</text>
</g>
<!-- AuthService&#45;&gt;AuthModule -->
<g id="edge10" class="edge">
<title>AuthService&#45;&gt;AuthModule</title>
<path fill="none" stroke="black" d="M337,-160.8C337,-169.8 337,-178.8 337,-178.8 337,-178.8 898,-178.8 898,-178.8 898,-178.8 898,-190.67 898,-190.67"/>
<polygon fill="black" stroke="black" points="894.5,-190.67 898,-200.67 901.5,-190.67 894.5,-190.67"/>
</g>
<!-- JwtStrategy -->
<g id="node11" class="node">
<title>JwtStrategy</title>
<ellipse fill="#fdb462" stroke="black" cx="203" cy="-142.8" rx="56.77" ry="18"/>
<text text-anchor="middle" x="203" y="-138.6" font-family="Times,serif" font-size="14.00">JwtStrategy</text>
</g>
<!-- JwtStrategy&#45;&gt;AuthModule -->
<g id="edge11" class="edge">
<title>JwtStrategy&#45;&gt;AuthModule</title>
<path fill="none" stroke="black" d="M203,-160.9C203,-171.89 203,-183.8 203,-183.8 203,-183.8 883.41,-183.8 883.41,-183.8 883.41,-183.8 883.41,-190.48 883.41,-190.48"/>
<polygon fill="black" stroke="black" points="879.91,-190.48 883.41,-200.48 886.91,-190.48 879.91,-190.48"/>
</g>
<!-- RtStrategy -->
<g id="node12" class="node">
<title>RtStrategy</title>
<ellipse fill="#fdb462" stroke="black" cx="76" cy="-142.8" rx="52.19" ry="18"/>
<text text-anchor="middle" x="76" y="-138.6" font-family="Times,serif" font-size="14.00">RtStrategy</text>
</g>
<!-- RtStrategy&#45;&gt;AuthModule -->
<g id="edge12" class="edge">
<title>RtStrategy&#45;&gt;AuthModule</title>
<path fill="none" stroke="black" d="M76,-160.84C76,-173.36 76,-187.8 76,-187.8 76,-187.8 868.82,-187.8 868.82,-187.8 868.82,-187.8 868.82,-190.77 868.82,-190.77"/>
<polygon fill="black" stroke="black" points="865.32,-190.77 868.82,-200.77 872.32,-190.77 865.32,-190.77"/>
</g>
<!-- EventService -->
<g id="node13" class="node">
<title>EventService</title>
<ellipse fill="#fdb462" stroke="black" cx="613" cy="-142.8" rx="62.54" ry="18"/>
<text text-anchor="middle" x="613" y="-138.6" font-family="Times,serif" font-size="14.00">EventService</text>
</g>
<!-- EventService&#45;&gt;EventModule -->
<g id="edge14" class="edge">
<title>EventService&#45;&gt;EventModule</title>
<path fill="none" stroke="black" d="M613,-160.96C613,-165.84 613,-169.8 613,-169.8 613,-169.8 971.02,-169.8 971.02,-169.8 971.02,-169.8 971.02,-190.55 971.02,-190.55"/>
<polygon fill="black" stroke="black" points="967.52,-190.55 971.02,-200.55 974.52,-190.55 967.52,-190.55"/>
</g>
<!-- LoggerMiddleware -->
<g id="node16" class="node">
<title>LoggerMiddleware</title>
<ellipse fill="#fdb462" stroke="black" cx="1348" cy="-294.8" rx="85.66" ry="18"/>
<text text-anchor="middle" x="1348" y="-290.6" font-family="Times,serif" font-size="14.00">LoggerMiddleware</text>
</g>
<!-- LoggerMiddleware&#45;&gt;LoggerModule -->
<g id="edge18" class="edge">
<title>LoggerMiddleware&#45;&gt;LoggerModule</title>
<path fill="none" stroke="black" d="M1267.19,-288.8C1219.33,-288.8 1167.95,-288.8 1167.95,-288.8 1167.95,-288.8 1167.95,-246.83 1167.95,-246.83"/>
<polygon fill="black" stroke="black" points="1171.45,-246.83 1167.95,-236.83 1164.45,-246.83 1171.45,-246.83"/>
</g>
<!-- LoggerService -->
<g id="node17" class="node">
<title>LoggerService</title>
<ellipse fill="#fdb462" stroke="black" cx="1519" cy="-294.8" rx="67.76" ry="18"/>
<text text-anchor="middle" x="1519" y="-290.6" font-family="Times,serif" font-size="14.00">LoggerService</text>
</g>
<!-- LoggerService&#45;&gt;LoggerModule -->
<g id="edge19" class="edge">
<title>LoggerService&#45;&gt;LoggerModule</title>
<path fill="none" stroke="black" d="M1485.65,-278.84C1485.65,-272.55 1485.65,-266.8 1485.65,-266.8 1485.65,-266.8 1165.91,-266.8 1165.91,-266.8 1165.91,-266.8 1165.91,-246.95 1165.91,-246.95"/>
<polygon fill="black" stroke="black" points="1169.41,-246.95 1165.91,-236.95 1162.41,-246.95 1169.41,-246.95"/>
</g>
<!-- MessageService -->
<g id="node18" class="node">
<title>MessageService</title>
<ellipse fill="#fdb462" stroke="black" cx="908" cy="-66.8" rx="73.57" ry="18"/>
<text text-anchor="middle" x="908" y="-62.6" font-family="Times,serif" font-size="14.00">MessageService</text>
</g>
<!-- MessageService&#45;&gt;MessageModule -->
<g id="edge20" class="edge">
<title>MessageService&#45;&gt;MessageModule</title>
<path fill="none" stroke="black" d="M908,-84.81C908,-84.81 908,-114.65 908,-114.65"/>
<polygon fill="black" stroke="black" points="904.5,-114.65 908,-124.65 911.5,-114.65 904.5,-114.65"/>
</g>
<!-- PrismaService -->
<g id="node20" class="node">
<title>PrismaService</title>
<ellipse fill="#fdb462" stroke="black" cx="1329" cy="-218.8" rx="66.64" ry="18"/>
<text text-anchor="middle" x="1329" y="-214.6" font-family="Times,serif" font-size="14.00">PrismaService</text>
</g>
<!-- PrismaService&#45;&gt;PrismaModule -->
<g id="edge22" class="edge">
<title>PrismaService&#45;&gt;PrismaModule</title>
<path fill="none" stroke="black" d="M1329,-200.74C1329,-196.31 1329,-192.8 1329,-192.8 1329,-192.8 1075.48,-192.8 1075.48,-192.8 1075.48,-192.8 1075.48,-170.85 1075.48,-170.85"/>
<polygon fill="black" stroke="black" points="1078.98,-170.85 1075.48,-160.85 1071.98,-170.85 1078.98,-170.85"/>
</g>
<!-- UserService -->
<g id="node22" class="node">
<title>UserService</title>
<ellipse fill="#fdb462" stroke="black" cx="1618" cy="-218.8" rx="58.46" ry="18"/>
<text text-anchor="middle" x="1618" y="-214.6" font-family="Times,serif" font-size="14.00">UserService</text>
</g>
<!-- UserService&#45;&gt;UserModule -->
<g id="edge24" class="edge">
<title>UserService&#45;&gt;UserModule</title>
<path fill="none" stroke="black" d="M1618,-200.77C1618,-180.03 1618,-148.8 1618,-148.8 1618,-148.8 1192.35,-148.8 1192.35,-148.8"/>
<polygon fill="black" stroke="black" points="1192.35,-145.3 1182.35,-148.8 1192.35,-152.3 1192.35,-145.3"/>
</g>
</g>
</svg>
