<?xml version="1.0" encoding="UTF-8" standalone="no"?>
<!DOCTYPE svg PUBLIC "-//W3C//DTD SVG 1.1//EN"
 "http://www.w3.org/Graphics/SVG/1.1/DTD/svg11.dtd">
<!-- Generated by graphviz version 5.0.0 (20220707.1540)
 -->
<!-- Title: dependencies Pages: 1 -->
<svg width="538pt" height="247pt"
 viewBox="0.00 0.00 538.00 246.80" xmlns="http://www.w3.org/2000/svg" xmlns:xlink="http://www.w3.org/1999/xlink">
<g id="graph0" class="graph" transform="scale(1 1) rotate(0) translate(4 242.8)">
<title>dependencies</title>
<polygon fill="white" stroke="transparent" points="-4,4 -4,-242.8 534,-242.8 534,4 -4,4"/>
<text text-anchor="middle" x="265" y="-8.2" font-family="sans-serif" font-size="14.00">dependencies</text>
<g id="clust1" class="cluster">
<title>cluster_AuthModule</title>
<polygon fill="none" stroke="black" stroke-dasharray="1,5" points="8,-32.8 8,-230.8 522,-230.8 522,-32.8 8,-32.8"/>
</g>
<g id="clust3" class="cluster">
<title>cluster_AuthModule_imports</title>
<polygon fill="none" stroke="black" points="412,-40.8 412,-92.8 514,-92.8 514,-40.8 412,-40.8"/>
</g>
<g id="clust6" class="cluster">
<title>cluster_AuthModule_providers</title>
<polygon fill="none" stroke="black" points="16,-40.8 16,-92.8 404,-92.8 404,-40.8 16,-40.8"/>
</g>
<g id="clust4" class="cluster">
<title>cluster_AuthModule_exports</title>
<polygon fill="none" stroke="black" points="217,-170.8 217,-222.8 323,-222.8 323,-170.8 217,-170.8"/>
</g>
<!-- UserModule -->
<g id="node1" class="node">
<title>UserModule</title>
<polygon fill="#8dd3c7" stroke="black" points="505.99,-84.8 502.99,-88.8 481.99,-88.8 478.99,-84.8 420.01,-84.8 420.01,-48.8 505.99,-48.8 505.99,-84.8"/>
<text text-anchor="middle" x="463" y="-62.6" font-family="Times,serif" font-size="14.00">UserModule</text>
</g>
<!-- AuthModule -->
<g id="node2" class="node">
<title>AuthModule</title>
<polygon fill="#8dd3c7" stroke="black" points="313.55,-149.8 310.55,-153.8 289.55,-153.8 286.55,-149.8 226.45,-149.8 226.45,-113.8 313.55,-113.8 313.55,-149.8"/>
<text text-anchor="middle" x="270" y="-127.6" font-family="Times,serif" font-size="14.00">AuthModule</text>
</g>
<!-- UserModule&#45;&gt;AuthModule -->
<g id="edge1" class="edge">
<title>UserModule&#45;&gt;AuthModule</title>
<path fill="none" stroke="black" d="M463,-84.91C463,-104.14 463,-131.8 463,-131.8 463,-131.8 323.79,-131.8 323.79,-131.8"/>
<polygon fill="black" stroke="black" points="323.79,-128.3 313.79,-131.8 323.79,-135.3 323.79,-128.3"/>
</g>
<!-- AuthService  -->
<g id="node3" class="node">
<title>AuthService </title>
<polygon fill="#fb8072" stroke="black" points="314.98,-214.8 225.02,-214.8 225.02,-178.8 314.98,-178.8 314.98,-214.8"/>
<text text-anchor="middle" x="270" y="-192.6" font-family="Times,serif" font-size="14.00">AuthService </text>
</g>
<!-- AuthModule&#45;&gt;AuthService  -->
<g id="edge2" class="edge">
<title>AuthModule&#45;&gt;AuthService </title>
<path fill="none" stroke="black" stroke-dasharray="5,2" d="M270,-149.91C270,-149.91 270,-168.79 270,-168.79"/>
<polygon fill="black" stroke="black" points="266.5,-168.79 270,-178.79 273.5,-168.79 266.5,-168.79"/>
</g>
<!-- AuthService -->
<g id="node4" class="node">
<title>AuthService</title>
<ellipse fill="#fdb462" stroke="black" cx="337" cy="-66.8" rx="59.11" ry="18"/>
<text text-anchor="middle" x="337" y="-62.6" font-family="Times,serif" font-size="14.00">AuthService</text>
</g>
<!-- AuthService&#45;&gt;AuthModule -->
<g id="edge3" class="edge">
<title>AuthService&#45;&gt;AuthModule</title>
<path fill="none" stroke="black" d="M295.73,-79.95C295.73,-79.95 295.73,-103.49 295.73,-103.49"/>
<polygon fill="black" stroke="black" points="292.23,-103.49 295.73,-113.49 299.23,-103.49 292.23,-103.49"/>
</g>
<!-- JwtStrategy -->
<g id="node5" class="node">
<title>JwtStrategy</title>
<ellipse fill="#fdb462" stroke="black" cx="203" cy="-66.8" rx="56.77" ry="18"/>
<text text-anchor="middle" x="203" y="-62.6" font-family="Times,serif" font-size="14.00">JwtStrategy</text>
</g>
<!-- JwtStrategy&#45;&gt;AuthModule -->
<g id="edge4" class="edge">
<title>JwtStrategy&#45;&gt;AuthModule</title>
<path fill="none" stroke="black" d="M242.93,-79.64C242.93,-79.64 242.93,-103.32 242.93,-103.32"/>
<polygon fill="black" stroke="black" points="239.43,-103.32 242.93,-113.32 246.43,-103.32 239.43,-103.32"/>
</g>
<!-- RtStrategy -->
<g id="node6" class="node">
<title>RtStrategy</title>
<ellipse fill="#fdb462" stroke="black" cx="76" cy="-66.8" rx="52.19" ry="18"/>
<text text-anchor="middle" x="76" y="-62.6" font-family="Times,serif" font-size="14.00">RtStrategy</text>
</g>
<!-- RtStrategy&#45;&gt;AuthModule -->
<g id="edge5" class="edge">
<title>RtStrategy&#45;&gt;AuthModule</title>
<path fill="none" stroke="black" d="M76,-84.91C76,-104.14 76,-131.8 76,-131.8 76,-131.8 215.98,-131.8 215.98,-131.8"/>
<polygon fill="black" stroke="black" points="215.98,-135.3 225.98,-131.8 215.98,-128.3 215.98,-135.3"/>
</g>
</g>
</svg>
