<?xml version="1.0" encoding="UTF-8" standalone="no"?>
<!DOCTYPE svg PUBLIC "-//W3C//DTD SVG 1.1//EN"
 "http://www.w3.org/Graphics/SVG/1.1/DTD/svg11.dtd">
<!-- Generated by graphviz version 5.0.0 (20220707.1540)
 -->
<!-- Title: dependencies Pages: 1 -->
<svg width="856pt" height="174pt"
 viewBox="0.00 0.00 856.00 173.80" xmlns="http://www.w3.org/2000/svg" xmlns:xlink="http://www.w3.org/1999/xlink">
<g id="graph0" class="graph" transform="scale(1 1) rotate(0) translate(4 169.8)">
<title>dependencies</title>
<polygon fill="white" stroke="transparent" points="-4,4 -4,-169.8 852,-169.8 852,4 -4,4"/>
<text text-anchor="middle" x="424" y="-8.2" font-family="sans-serif" font-size="14.00">dependencies</text>
<g id="clust1" class="cluster">
<title>cluster_AppModule</title>
<polygon fill="none" stroke="black" stroke-dasharray="1,5" points="8,-32.8 8,-157.8 840,-157.8 840,-32.8 8,-32.8"/>
</g>
<g id="clust6" class="cluster">
<title>cluster_AppModule_providers</title>
<polygon fill="none" stroke="black" points="702,-40.8 702,-92.8 832,-92.8 832,-40.8 702,-40.8"/>
</g>
<g id="clust3" class="cluster">
<title>cluster_AppModule_imports</title>
<polygon fill="none" stroke="black" points="16,-40.8 16,-92.8 694,-92.8 694,-40.8 16,-40.8"/>
</g>
<!-- AuthModule -->
<g id="node1" class="node">
<title>AuthModule</title>
<polygon fill="#8dd3c7" stroke="black" points="685.55,-84.8 682.55,-88.8 661.55,-88.8 658.55,-84.8 598.45,-84.8 598.45,-48.8 685.55,-48.8 685.55,-84.8"/>
<text text-anchor="middle" x="642" y="-62.6" font-family="Times,serif" font-size="14.00">AuthModule</text>
</g>
<!-- AppModule -->
<g id="node7" class="node">
<title>AppModule</title>
<polygon fill="#8dd3c7" stroke="black" points="461.66,-149.8 458.66,-153.8 437.66,-153.8 434.66,-149.8 378.34,-149.8 378.34,-113.8 461.66,-113.8 461.66,-149.8"/>
<text text-anchor="middle" x="420" y="-127.6" font-family="Times,serif" font-size="14.00">AppModule</text>
</g>
<!-- AuthModule&#45;&gt;AppModule -->
<g id="edge1" class="edge">
<title>AuthModule&#45;&gt;AppModule</title>
<path fill="none" stroke="black" d="M642,-84.91C642,-104.14 642,-131.8 642,-131.8 642,-131.8 471.76,-131.8 471.76,-131.8"/>
<polygon fill="black" stroke="black" points="471.76,-128.3 461.76,-131.8 471.76,-135.3 471.76,-128.3"/>
</g>
<!-- EventModule -->
<g id="node2" class="node">
<title>EventModule</title>
<polygon fill="#8dd3c7" stroke="black" points="580.21,-84.8 577.21,-88.8 556.21,-88.8 553.21,-84.8 487.79,-84.8 487.79,-48.8 580.21,-48.8 580.21,-84.8"/>
<text text-anchor="middle" x="534" y="-62.6" font-family="Times,serif" font-size="14.00">EventModule</text>
</g>
<!-- EventModule&#45;&gt;AppModule -->
<g id="edge2" class="edge">
<title>EventModule&#45;&gt;AppModule</title>
<path fill="none" stroke="black" d="M534,-84.83C534,-101.2 534,-122.8 534,-122.8 534,-122.8 471.8,-122.8 471.8,-122.8"/>
<polygon fill="black" stroke="black" points="471.8,-119.3 461.8,-122.8 471.8,-126.3 471.8,-119.3"/>
</g>
<!-- LoggerModule -->
<g id="node3" class="node">
<title>LoggerModule</title>
<polygon fill="#8dd3c7" stroke="black" points="469.98,-84.8 466.98,-88.8 445.98,-88.8 442.98,-84.8 370.02,-84.8 370.02,-48.8 469.98,-48.8 469.98,-84.8"/>
<text text-anchor="middle" x="420" y="-62.6" font-family="Times,serif" font-size="14.00">LoggerModule</text>
</g>
<!-- LoggerModule&#45;&gt;AppModule -->
<g id="edge3" class="edge">
<title>LoggerModule&#45;&gt;AppModule</title>
<path fill="none" stroke="black" d="M420,-84.91C420,-84.91 420,-103.79 420,-103.79"/>
<polygon fill="black" stroke="black" points="416.5,-103.79 420,-113.79 423.5,-103.79 416.5,-103.79"/>
</g>
<!-- MessageModule -->
<g id="node4" class="node">
<title>MessageModule</title>
<polygon fill="#8dd3c7" stroke="black" points="352.04,-84.8 349.04,-88.8 328.04,-88.8 325.04,-84.8 243.96,-84.8 243.96,-48.8 352.04,-48.8 352.04,-84.8"/>
<text text-anchor="middle" x="298" y="-62.6" font-family="Times,serif" font-size="14.00">MessageModule</text>
</g>
<!-- MessageModule&#45;&gt;AppModule -->
<g id="edge4" class="edge">
<title>MessageModule&#45;&gt;AppModule</title>
<path fill="none" stroke="black" d="M298,-84.83C298,-101.2 298,-122.8 298,-122.8 298,-122.8 368.01,-122.8 368.01,-122.8"/>
<polygon fill="black" stroke="black" points="368.01,-126.3 378.01,-122.8 368.01,-119.3 368.01,-126.3"/>
</g>
<!-- PrismaModule -->
<g id="node5" class="node">
<title>PrismaModule</title>
<polygon fill="#8dd3c7" stroke="black" points="226.44,-84.8 223.44,-88.8 202.44,-88.8 199.44,-84.8 127.56,-84.8 127.56,-48.8 226.44,-48.8 226.44,-84.8"/>
<text text-anchor="middle" x="177" y="-62.6" font-family="Times,serif" font-size="14.00">PrismaModule</text>
</g>
<!-- PrismaModule&#45;&gt;AppModule -->
<g id="edge5" class="edge">
<title>PrismaModule&#45;&gt;AppModule</title>
<path fill="none" stroke="black" d="M177,-84.91C177,-104.14 177,-131.8 177,-131.8 177,-131.8 368.23,-131.8 368.23,-131.8"/>
<polygon fill="black" stroke="black" points="368.23,-135.3 378.23,-131.8 368.23,-128.3 368.23,-135.3"/>
</g>
<!-- UserModule -->
<g id="node6" class="node">
<title>UserModule</title>
<polygon fill="#8dd3c7" stroke="black" points="109.99,-84.8 106.99,-88.8 85.99,-88.8 82.99,-84.8 24.01,-84.8 24.01,-48.8 109.99,-48.8 109.99,-84.8"/>
<text text-anchor="middle" x="67" y="-62.6" font-family="Times,serif" font-size="14.00">UserModule</text>
</g>
<!-- UserModule&#45;&gt;AppModule -->
<g id="edge6" class="edge">
<title>UserModule&#45;&gt;AppModule</title>
<path fill="none" stroke="black" d="M67,-85.09C67,-107.01 67,-140.8 67,-140.8 67,-140.8 368.12,-140.8 368.12,-140.8"/>
<polygon fill="black" stroke="black" points="368.12,-144.3 378.12,-140.8 368.12,-137.3 368.12,-144.3"/>
</g>
<!-- AppService -->
<g id="node8" class="node">
<title>AppService</title>
<ellipse fill="#fdb462" stroke="black" cx="767" cy="-66.8" rx="56.75" ry="18"/>
<text text-anchor="middle" x="767" y="-62.6" font-family="Times,serif" font-size="14.00">AppService</text>
</g>
<!-- AppService&#45;&gt;AppModule -->
<g id="edge7" class="edge">
<title>AppService&#45;&gt;AppModule</title>
<path fill="none" stroke="black" d="M767,-85.09C767,-107.01 767,-140.8 767,-140.8 767,-140.8 471.86,-140.8 471.86,-140.8"/>
<polygon fill="black" stroke="black" points="471.86,-137.3 461.86,-140.8 471.86,-144.3 471.86,-137.3"/>
</g>
</g>
</svg>
